<svg xmlns="http://www.w3.org/2000/svg" xmlns:xlink="http://www.w3.org/1999/xlink" version="1.1" x="0px" y="0px" viewBox="0 0 100 125" enable-background="new 0 0 100 100" xml:space="preserve"><g><path d="M59.875,72.678H40.31c-2.033,0-3.688,1.654-3.688,3.688v2.569c0,2.033,1.654,3.688,3.688,3.688h19.565   c2.033,0,3.688-1.654,3.688-3.688v-2.569C63.563,74.333,61.908,72.678,59.875,72.678z M51,74.678h3.542v5.944H51V74.678z    M49,80.622h-3.357v-5.944H49V80.622z M38.622,78.935v-2.569c0-0.931,0.757-1.688,1.688-1.688h3.333v5.944H40.31   C39.379,80.622,38.622,79.865,38.622,78.935z M61.563,78.935c0,0.931-0.757,1.688-1.688,1.688h-3.333v-5.944h3.333   c0.931,0,1.688,0.757,1.688,1.688V78.935z"/><path d="M34.266,22.735c0.552,0,1-0.448,1-1C35.266,13.61,41.875,7,50,7s14.734,6.61,14.734,14.735c0,0.552,0.448,1,1,1   s1-0.448,1-1C66.734,12.507,59.228,5,50,5s-16.734,7.507-16.734,16.735C33.266,22.287,33.713,22.735,34.266,22.735z"/><path d="M50,10.912c-5.967,0-10.822,4.855-10.822,10.823c0,0.552,0.448,1,1,1s1-0.448,1-1c0-4.865,3.958-8.823,8.822-8.823   s8.822,3.958,8.822,8.823c0,0.552,0.448,1,1,1s1-0.448,1-1C60.822,15.767,55.967,10.912,50,10.912z"/><path d="M48.721,61.234c0-5.514-4.486-10-10-10s-10,4.486-10,10s4.486,10,10,10S48.721,66.748,48.721,61.234z M30.721,61.234   c0-4.411,3.589-8,8-8s8,3.589,8,8s-3.589,8-8,8S30.721,65.645,30.721,61.234z"/><path d="M41.677,61.234c0-1.63-1.326-2.956-2.956-2.956s-2.956,1.326-2.956,2.956s1.326,2.956,2.956,2.956   S41.677,62.864,41.677,61.234z"/><path d="M61.279,51.234c-5.514,0-10,4.486-10,10s4.486,10,10,10s10-4.486,10-10S66.793,51.234,61.279,51.234z M61.279,69.234   c-4.411,0-8-3.589-8-8s3.589-8,8-8s8,3.589,8,8S65.69,69.234,61.279,69.234z"/><path d="M64.234,61.234c0-1.63-1.326-2.956-2.956-2.956s-2.956,1.326-2.956,2.956s1.326,2.956,2.956,2.956   S64.234,62.864,64.234,61.234z"/><path d="M21.111,67.043c-0.552,0-1,0.448-1,1v4.075c0,0.552,0.448,1,1,1s1-0.448,1-1v-4.075   C22.111,67.491,21.664,67.043,21.111,67.043z"/><path d="M77.098,60.234h-0.604v-5.223c0-7.168-5.832-13-13-13h-4.268c-0.464-4.268-3.862-7.666-8.13-8.131v-7.368   c2.18-0.501,3.814-2.448,3.814-4.777c0-2.708-2.203-4.91-4.91-4.91s-4.911,2.203-4.911,4.91c0,2.398,1.731,4.393,4.007,4.819v7.326   c-4.265,0.464-7.66,3.857-8.129,8.131h-4.462c-7.168,0-13,5.832-13,13v5.223h-0.604c-4.561,0-8.271,3.71-8.271,8.271v3.207   c0,4.553,3.71,8.257,8.271,8.257h0.604V82c0,7.168,5.832,13,13,13h26.989c7.168,0,13-5.832,13-13v-2.031h0.604   c4.561,0,8.271-3.704,8.271-8.257v-3.207C85.37,63.944,81.659,60.234,77.098,60.234z M22.902,77.969   c-0.268,0-0.531-0.023-0.791-0.055v-1.721c0-0.552-0.448-1-1-1s-1,0.448-1,1v1.115c-2.06-1.027-3.481-3.146-3.481-5.595v-3.207   c0-2.455,1.421-4.579,3.481-5.608v1.071c0,0.552,0.448,1,1,1s1-0.448,1-1v-1.679c0.26-0.033,0.522-0.055,0.791-0.055h0.604v15.735   H22.902z M74.495,82c0,6.065-4.935,11-11,11H36.505c-6.065,0-11-4.935-11-11V55.011c0-6.065,4.935-11,11-11h26.989   c6.065,0,11,4.935,11,11V82z M83.37,71.712c0,2.449-1.421,4.568-3.481,5.595v-1.115c0-0.552-0.448-1-1-1s-1,0.448-1,1v1.721   c-0.26,0.033-0.522,0.055-0.791,0.055h-0.604V62.234h0.604c0.268,0,0.531,0.023,0.791,0.055v1.679c0,0.552,0.448,1,1,1s1-0.448,1-1   v-1.071c2.06,1.029,3.481,3.153,3.481,5.608V71.712z"/><path d="M78.889,67.043c-0.552,0-1,0.448-1,1v4.075c0,0.552,0.448,1,1,1s1-0.448,1-1v-4.075   C79.889,67.491,79.441,67.043,78.889,67.043z"/></g><text x="0" y="115" fill="#000000" font-size="5px" font-weight="bold" font-family="'Helvetica Neue', Helvetica, Arial-Unicode, Arial, Sans-serif">Created by Maxim Kulikov</text><text x="0" y="120" fill="#000000" font-size="5px" font-weight="bold" font-family="'Helvetica Neue', Helvetica, Arial-Unicode, Arial, Sans-serif">from the Noun Project</text></svg>